<svg width="179" height="53" viewBox="0 0 179 53" fill="none" xmlns="http://www.w3.org/2000/svg">
<path d="M7.524 46.406C7.164 46.67 6.738 46.868 6.246 47C5.754 47.144 5.238 47.216 4.698 47.216C4.002 47.216 3.414 47.108 2.934 46.892C2.454 46.664 2.058 46.346 1.746 45.938C1.446 45.518 1.224 45.02 1.08 44.444C0.948 43.856 0.882 43.208 0.882 42.5C0.882 40.976 1.218 39.812 1.89 39.008C2.562 38.192 3.528 37.784 4.788 37.784C5.364 37.784 5.85 37.832 6.246 37.928C6.654 38.012 7.02 38.138 7.344 38.306L6.93 39.548C6.654 39.392 6.348 39.272 6.012 39.188C5.676 39.092 5.316 39.044 4.932 39.044C3.228 39.044 2.376 40.196 2.376 42.5C2.376 42.956 2.418 43.394 2.502 43.814C2.598 44.222 2.748 44.588 2.952 44.912C3.168 45.224 3.444 45.476 3.78 45.668C4.128 45.86 4.554 45.956 5.058 45.956C5.49 45.956 5.874 45.89 6.21 45.758C6.558 45.626 6.84 45.476 7.056 45.308L7.524 46.406ZM15.6552 46.28C15.2952 46.568 14.8392 46.796 14.2872 46.964C13.7472 47.132 13.1712 47.216 12.5592 47.216C11.8752 47.216 11.2812 47.108 10.7772 46.892C10.2732 46.664 9.85922 46.346 9.53522 45.938C9.21122 45.518 8.97122 45.02 8.81522 44.444C8.65922 43.868 8.58122 43.22 8.58122 42.5C8.58122 40.964 8.92322 39.794 9.60722 38.99C10.2912 38.186 11.2692 37.784 12.5412 37.784C12.9492 37.784 13.3572 37.832 13.7652 37.928C14.1732 38.012 14.5392 38.18 14.8632 38.432C15.1872 38.684 15.4512 39.044 15.6552 39.512C15.8592 39.968 15.9612 40.574 15.9612 41.33C15.9612 41.726 15.9252 42.164 15.8532 42.644H10.0752C10.0752 43.172 10.1292 43.64 10.2372 44.048C10.3452 44.456 10.5132 44.804 10.7412 45.092C10.9692 45.368 11.2632 45.584 11.6232 45.74C11.9952 45.884 12.4452 45.956 12.9732 45.956C13.3812 45.956 13.7892 45.884 14.1972 45.74C14.6052 45.596 14.9112 45.428 15.1152 45.236L15.6552 46.28ZM12.5592 39.044C11.8512 39.044 11.2812 39.23 10.8492 39.602C10.4292 39.974 10.1772 40.61 10.0932 41.51H14.5572C14.5572 40.598 14.3832 39.962 14.0352 39.602C13.6872 39.23 13.1952 39.044 12.5592 39.044ZM18.2258 38H19.2158L19.4858 39.08H19.5578C19.8338 38.66 20.1878 38.342 20.6198 38.126C21.0638 37.898 21.5678 37.784 22.1318 37.784C23.3318 37.784 24.2258 38.138 24.8138 38.846C25.4018 39.554 25.6958 40.712 25.6958 42.32C25.6958 43.076 25.5938 43.76 25.3898 44.372C25.1978 44.972 24.9218 45.482 24.5618 45.902C24.2018 46.322 23.7638 46.646 23.2478 46.874C22.7438 47.102 22.1798 47.216 21.5558 47.216C21.1118 47.216 20.7578 47.186 20.4938 47.126C20.2418 47.078 19.9658 46.988 19.6658 46.856V50.6H18.2258V38ZM21.8618 39.044C21.2498 39.044 20.7638 39.206 20.4038 39.53C20.0558 39.842 19.8098 40.322 19.6658 40.97V45.434C19.8818 45.602 20.1278 45.734 20.4038 45.83C20.6798 45.914 21.0458 45.956 21.5018 45.956C22.3298 45.956 22.9838 45.65 23.4638 45.038C23.9558 44.414 24.2018 43.502 24.2018 42.302C24.2018 41.81 24.1598 41.366 24.0758 40.97C23.9918 40.562 23.8538 40.22 23.6618 39.944C23.4818 39.656 23.2418 39.434 22.9418 39.278C22.6538 39.122 22.2938 39.044 21.8618 39.044ZM27.9641 38.018C28.3841 37.994 28.8221 37.964 29.2781 37.928C29.7461 37.892 30.3221 37.874 31.0061 37.874C32.1941 37.874 33.0461 38.06 33.5621 38.432C34.0781 38.792 34.3361 39.344 34.3361 40.088C34.3361 40.508 34.2101 40.922 33.9581 41.33C33.7181 41.726 33.3161 42.02 32.7521 42.212V42.284C33.4601 42.416 33.9581 42.662 34.2461 43.022C34.5341 43.382 34.6781 43.862 34.6781 44.462C34.6781 45.398 34.3421 46.076 33.6701 46.496C32.9981 46.916 31.9901 47.126 30.6461 47.126C30.1421 47.126 29.6741 47.108 29.2421 47.072C28.8101 47.048 28.3841 47.018 27.9641 46.982V38.018ZM29.4041 45.794C29.6321 45.818 29.8541 45.836 30.0701 45.848C30.2981 45.86 30.5621 45.866 30.8621 45.866C31.6661 45.866 32.2601 45.752 32.6441 45.524C33.0401 45.296 33.2381 44.906 33.2381 44.354C33.2381 43.922 33.0701 43.574 32.7341 43.31C32.4101 43.034 31.8281 42.896 30.9881 42.896H29.4041V45.794ZM31.1681 41.798C31.3841 41.798 31.5941 41.762 31.7981 41.69C32.0021 41.618 32.1821 41.522 32.3381 41.402C32.5061 41.27 32.6381 41.12 32.7341 40.952C32.8421 40.784 32.8961 40.604 32.8961 40.412C32.8961 39.932 32.7521 39.602 32.4641 39.422C32.1761 39.23 31.6721 39.134 30.9521 39.134C30.5681 39.134 30.2621 39.14 30.0341 39.152C29.8181 39.164 29.6081 39.176 29.4041 39.188V41.798H31.1681ZM42.5625 41.672L42.6165 40.556H42.5625L41.8245 41.708L37.7745 47H36.9465V38H38.3865V43.49L38.3325 44.552H38.4045L39.1065 43.436L43.1565 38H44.0025V47H42.5625V41.672ZM52.9107 46.406C52.5507 46.67 52.1247 46.868 51.6327 47C51.1407 47.144 50.6247 47.216 50.0847 47.216C49.3887 47.216 48.8007 47.108 48.3207 46.892C47.8407 46.664 47.4447 46.346 47.1327 45.938C46.8327 45.518 46.6107 45.02 46.4667 44.444C46.3347 43.856 46.2687 43.208 46.2687 42.5C46.2687 40.976 46.6047 39.812 47.2767 39.008C47.9487 38.192 48.9147 37.784 50.1747 37.784C50.7507 37.784 51.2367 37.832 51.6327 37.928C52.0407 38.012 52.4067 38.138 52.7307 38.306L52.3167 39.548C52.0407 39.392 51.7347 39.272 51.3987 39.188C51.0627 39.092 50.7027 39.044 50.3187 39.044C48.6147 39.044 47.7627 40.196 47.7627 42.5C47.7627 42.956 47.8047 43.394 47.8887 43.814C47.9847 44.222 48.1347 44.588 48.3387 44.912C48.5547 45.224 48.8307 45.476 49.1667 45.668C49.5147 45.86 49.9407 45.956 50.4447 45.956C50.8767 45.956 51.2607 45.89 51.5967 45.758C51.9447 45.626 52.2267 45.476 52.4427 45.308L52.9107 46.406ZM59.1886 42.5C59.1886 40.976 59.5246 39.812 60.1966 39.008C60.8806 38.192 61.8586 37.784 63.1306 37.784C63.8026 37.784 64.3846 37.898 64.8766 38.126C65.3806 38.342 65.7946 38.66 66.1186 39.08C66.4426 39.488 66.6826 39.986 66.8386 40.574C66.9946 41.15 67.0726 41.792 67.0726 42.5C67.0726 44.024 66.7306 45.194 66.0466 46.01C65.3746 46.814 64.4026 47.216 63.1306 47.216C62.4586 47.216 61.8706 47.108 61.3666 46.892C60.8746 46.664 60.4666 46.346 60.1426 45.938C59.8186 45.518 59.5786 45.02 59.4226 44.444C59.2666 43.856 59.1886 43.208 59.1886 42.5ZM60.6826 42.5C60.6826 42.956 60.7246 43.394 60.8086 43.814C60.9046 44.234 61.0486 44.6 61.2406 44.912C61.4326 45.224 61.6846 45.476 61.9966 45.668C62.3086 45.86 62.6866 45.956 63.1306 45.956C64.7626 45.968 65.5786 44.816 65.5786 42.5C65.5786 42.032 65.5306 41.588 65.4346 41.168C65.3506 40.748 65.2126 40.382 65.0206 40.07C64.8286 39.758 64.5766 39.512 64.2646 39.332C63.9526 39.14 63.5746 39.044 63.1306 39.044C61.4986 39.032 60.6826 40.184 60.6826 42.5ZM74.851 43.022H70.783V47H69.343V38H70.783V41.762H74.851V38H76.291V47H74.851V43.022ZM83.9057 39.26H81.2957C81.2597 39.764 81.2237 40.31 81.1877 40.898C81.1517 41.474 81.0977 42.056 81.0257 42.644C80.9537 43.22 80.8577 43.778 80.7377 44.318C80.6177 44.846 80.4617 45.314 80.2697 45.722C80.0897 46.13 79.8617 46.46 79.5857 46.712C79.3217 46.952 79.0037 47.072 78.6317 47.072C78.4037 47.072 78.2057 47.06 78.0377 47.036C77.8697 47.012 77.7197 46.97 77.5877 46.91L77.8037 45.704C77.9477 45.752 78.1037 45.776 78.2717 45.776C78.5117 45.776 78.7277 45.674 78.9197 45.47C79.1117 45.266 79.2797 44.882 79.4237 44.318C79.5677 43.742 79.6877 42.95 79.7837 41.942C79.8797 40.934 79.9457 39.62 79.9817 38H85.3457V47H83.9057V39.26ZM87.9725 38.666C88.4285 38.39 88.9565 38.186 89.5565 38.054C90.1685 37.922 90.8045 37.856 91.4645 37.856C92.0885 37.856 92.5865 37.94 92.9585 38.108C93.3425 38.276 93.6305 38.498 93.8225 38.774C94.0265 39.038 94.1585 39.332 94.2185 39.656C94.2905 39.98 94.3265 40.304 94.3265 40.628C94.3265 41.348 94.3085 42.05 94.2725 42.734C94.2365 43.418 94.2185 44.066 94.2185 44.678C94.2185 45.122 94.2365 45.542 94.2725 45.938C94.3085 46.334 94.3745 46.7 94.4705 47.036H93.4085L93.0305 45.776H92.9405C92.8325 45.944 92.6945 46.112 92.5265 46.28C92.3705 46.436 92.1785 46.58 91.9505 46.712C91.7225 46.832 91.4585 46.934 91.1585 47.018C90.8585 47.102 90.5165 47.144 90.1325 47.144C89.7485 47.144 89.3885 47.084 89.0525 46.964C88.7285 46.844 88.4465 46.676 88.2065 46.46C87.9665 46.232 87.7745 45.962 87.6305 45.65C87.4985 45.338 87.4325 44.984 87.4325 44.588C87.4325 44.06 87.5405 43.622 87.7565 43.274C87.9725 42.914 88.2725 42.632 88.6565 42.428C89.0525 42.212 89.5205 42.062 90.0605 41.978C90.6125 41.882 91.2185 41.834 91.8785 41.834C92.0465 41.834 92.2085 41.834 92.3645 41.834C92.5325 41.834 92.7005 41.846 92.8685 41.87C92.9045 41.51 92.9225 41.186 92.9225 40.898C92.9225 40.238 92.7905 39.776 92.5265 39.512C92.2625 39.248 91.7825 39.116 91.0865 39.116C90.8825 39.116 90.6605 39.134 90.4205 39.17C90.1925 39.194 89.9525 39.236 89.7005 39.296C89.4605 39.344 89.2265 39.41 88.9985 39.494C88.7825 39.566 88.5905 39.65 88.4225 39.746L87.9725 38.666ZM90.5285 45.884C90.8645 45.884 91.1645 45.842 91.4285 45.758C91.6925 45.662 91.9205 45.548 92.1125 45.416C92.3045 45.272 92.4605 45.116 92.5805 44.948C92.7125 44.78 92.8085 44.618 92.8685 44.462V42.968C92.7005 42.956 92.5265 42.95 92.3465 42.95C92.1785 42.938 92.0105 42.932 91.8425 42.932C91.4705 42.932 91.1045 42.956 90.7445 43.004C90.3965 43.04 90.0845 43.118 89.8085 43.238C89.5445 43.346 89.3285 43.502 89.1605 43.706C89.0045 43.898 88.9265 44.144 88.9265 44.444C88.9265 44.864 89.0765 45.212 89.3765 45.488C89.6765 45.752 90.0605 45.884 90.5285 45.884ZM102.662 41.672L102.716 40.556H102.662L101.924 41.708L97.8742 47H97.0462V38H98.4862V43.49L98.4322 44.552H98.5042L99.2062 43.436L103.256 38H104.102V47H102.662V41.672ZM99.1162 34.364C99.2362 34.916 99.4402 35.3 99.7282 35.516C100.028 35.732 100.37 35.84 100.754 35.84C101.138 35.84 101.48 35.726 101.78 35.498C102.08 35.27 102.284 34.898 102.392 34.382L103.472 34.724C103.364 35.42 103.052 35.954 102.536 36.326C102.032 36.698 101.426 36.884 100.718 36.884C100.394 36.884 100.07 36.842 99.7462 36.758C99.4342 36.674 99.1522 36.548 98.9002 36.38C98.6482 36.212 98.4322 35.996 98.2522 35.732C98.0722 35.468 97.9522 35.156 97.8922 34.796L99.1162 34.364ZM112.38 43.022H108.312V47H106.872V38H108.312V41.762H112.38V38H113.82V47H112.38V43.022ZM116.269 41.15H120.625V42.482H116.269V41.15ZM123.943 42.986V41.816H125.203C125.419 41.816 125.629 41.78 125.833 41.708C126.049 41.636 126.241 41.54 126.409 41.42C126.577 41.288 126.709 41.138 126.805 40.97C126.913 40.79 126.967 40.604 126.967 40.412C126.967 39.944 126.805 39.614 126.481 39.422C126.157 39.23 125.671 39.134 125.023 39.134C124.555 39.134 124.123 39.206 123.727 39.35C123.343 39.494 123.043 39.632 122.827 39.764L122.413 38.648C122.773 38.444 123.193 38.264 123.673 38.108C124.165 37.952 124.747 37.874 125.419 37.874C127.411 37.874 128.407 38.612 128.407 40.088C128.407 40.508 128.269 40.922 127.993 41.33C127.729 41.726 127.345 42.008 126.841 42.176V42.248C127.549 42.38 128.041 42.632 128.317 43.004C128.605 43.376 128.749 43.868 128.749 44.48C128.749 44.864 128.671 45.218 128.515 45.542C128.359 45.866 128.125 46.148 127.813 46.388C127.501 46.628 127.105 46.82 126.625 46.964C126.157 47.096 125.611 47.162 124.987 47.162C124.375 47.162 123.865 47.108 123.457 47C123.061 46.892 122.701 46.76 122.377 46.604L122.791 45.416C123.067 45.572 123.397 45.692 123.781 45.776C124.177 45.86 124.603 45.902 125.059 45.902C125.791 45.902 126.349 45.776 126.733 45.524C127.117 45.272 127.309 44.888 127.309 44.372C127.309 43.94 127.129 43.604 126.769 43.364C126.409 43.112 125.815 42.986 124.987 42.986H123.943ZM130.881 38.666C131.337 38.39 131.865 38.186 132.465 38.054C133.077 37.922 133.713 37.856 134.373 37.856C134.997 37.856 135.495 37.94 135.867 38.108C136.251 38.276 136.539 38.498 136.731 38.774C136.935 39.038 137.067 39.332 137.127 39.656C137.199 39.98 137.235 40.304 137.235 40.628C137.235 41.348 137.217 42.05 137.181 42.734C137.145 43.418 137.127 44.066 137.127 44.678C137.127 45.122 137.145 45.542 137.181 45.938C137.217 46.334 137.283 46.7 137.379 47.036H136.317L135.939 45.776H135.849C135.741 45.944 135.603 46.112 135.435 46.28C135.279 46.436 135.087 46.58 134.859 46.712C134.631 46.832 134.367 46.934 134.067 47.018C133.767 47.102 133.425 47.144 133.041 47.144C132.657 47.144 132.297 47.084 131.961 46.964C131.637 46.844 131.355 46.676 131.115 46.46C130.875 46.232 130.683 45.962 130.539 45.65C130.407 45.338 130.341 44.984 130.341 44.588C130.341 44.06 130.449 43.622 130.665 43.274C130.881 42.914 131.181 42.632 131.565 42.428C131.961 42.212 132.429 42.062 132.969 41.978C133.521 41.882 134.127 41.834 134.787 41.834C134.955 41.834 135.117 41.834 135.273 41.834C135.441 41.834 135.609 41.846 135.777 41.87C135.813 41.51 135.831 41.186 135.831 40.898C135.831 40.238 135.699 39.776 135.435 39.512C135.171 39.248 134.691 39.116 133.995 39.116C133.791 39.116 133.569 39.134 133.329 39.17C133.101 39.194 132.861 39.236 132.609 39.296C132.369 39.344 132.135 39.41 131.907 39.494C131.691 39.566 131.499 39.65 131.331 39.746L130.881 38.666ZM133.437 45.884C133.773 45.884 134.073 45.842 134.337 45.758C134.601 45.662 134.829 45.548 135.021 45.416C135.213 45.272 135.369 45.116 135.489 44.948C135.621 44.78 135.717 44.618 135.777 44.462V42.968C135.609 42.956 135.435 42.95 135.255 42.95C135.087 42.938 134.919 42.932 134.751 42.932C134.379 42.932 134.013 42.956 133.653 43.004C133.305 43.04 132.993 43.118 132.717 43.238C132.453 43.346 132.237 43.502 132.069 43.706C131.913 43.898 131.835 44.144 131.835 44.444C131.835 44.864 131.985 45.212 132.285 45.488C132.585 45.752 132.969 45.884 133.437 45.884ZM145.57 41.672L145.624 40.556H145.57L144.832 41.708L140.782 47H139.954V38H141.394V43.49L141.34 44.552H141.412L142.114 43.436L146.164 38H147.01V47H145.57V41.672ZM142.024 34.364C142.144 34.916 142.348 35.3 142.636 35.516C142.936 35.732 143.278 35.84 143.662 35.84C144.046 35.84 144.388 35.726 144.688 35.498C144.988 35.27 145.192 34.898 145.3 34.382L146.38 34.724C146.272 35.42 145.96 35.954 145.444 36.326C144.94 36.698 144.334 36.884 143.626 36.884C143.302 36.884 142.978 36.842 142.654 36.758C142.342 36.674 142.06 36.548 141.808 36.38C141.556 36.212 141.34 35.996 141.16 35.732C140.98 35.468 140.86 35.156 140.8 34.796L142.024 34.364ZM157.215 41.654L157.323 39.944H157.233L156.585 41.33L154.407 44.858H153.903L151.635 41.33L151.041 39.944H150.969L151.113 41.636V47H149.781V38H151.203L153.723 42.032L154.245 43.076H154.281L154.821 41.996L157.179 38H158.619V47H157.215V41.654ZM160.878 42.5C160.878 40.976 161.214 39.812 161.886 39.008C162.57 38.192 163.548 37.784 164.82 37.784C165.492 37.784 166.074 37.898 166.566 38.126C167.07 38.342 167.484 38.66 167.808 39.08C168.132 39.488 168.372 39.986 168.528 40.574C168.684 41.15 168.762 41.792 168.762 42.5C168.762 44.024 168.42 45.194 167.736 46.01C167.064 46.814 166.092 47.216 164.82 47.216C164.148 47.216 163.56 47.108 163.056 46.892C162.564 46.664 162.156 46.346 161.832 45.938C161.508 45.518 161.268 45.02 161.112 44.444C160.956 43.856 160.878 43.208 160.878 42.5ZM162.372 42.5C162.372 42.956 162.414 43.394 162.498 43.814C162.594 44.234 162.738 44.6 162.93 44.912C163.122 45.224 163.374 45.476 163.686 45.668C163.998 45.86 164.376 45.956 164.82 45.956C166.452 45.968 167.268 44.816 167.268 42.5C167.268 42.032 167.22 41.588 167.124 41.168C167.04 40.748 166.902 40.382 166.71 40.07C166.518 39.758 166.266 39.512 165.954 39.332C165.642 39.14 165.264 39.044 164.82 39.044C163.188 39.032 162.372 40.184 162.372 42.5ZM171.032 38.018C171.452 37.994 171.89 37.964 172.346 37.928C172.814 37.892 173.39 37.874 174.074 37.874C175.262 37.874 176.114 38.06 176.63 38.432C177.146 38.792 177.404 39.344 177.404 40.088C177.404 40.508 177.278 40.922 177.026 41.33C176.786 41.726 176.384 42.02 175.82 42.212V42.284C176.528 42.416 177.026 42.662 177.314 43.022C177.602 43.382 177.746 43.862 177.746 44.462C177.746 45.398 177.41 46.076 176.738 46.496C176.066 46.916 175.058 47.126 173.714 47.126C173.21 47.126 172.742 47.108 172.31 47.072C171.878 47.048 171.452 47.018 171.032 46.982V38.018ZM172.472 45.794C172.7 45.818 172.922 45.836 173.138 45.848C173.366 45.86 173.63 45.866 173.93 45.866C174.734 45.866 175.328 45.752 175.712 45.524C176.108 45.296 176.306 44.906 176.306 44.354C176.306 43.922 176.138 43.574 175.802 43.31C175.478 43.034 174.896 42.896 174.056 42.896H172.472V45.794ZM174.236 41.798C174.452 41.798 174.662 41.762 174.866 41.69C175.07 41.618 175.25 41.522 175.406 41.402C175.574 41.27 175.706 41.12 175.802 40.952C175.91 40.784 175.964 40.604 175.964 40.412C175.964 39.932 175.82 39.602 175.532 39.422C175.244 39.23 174.74 39.134 174.02 39.134C173.636 39.134 173.33 39.14 173.102 39.152C172.886 39.164 172.676 39.176 172.472 39.188V41.798H174.236Z" fill="#9E1272"/>
<path fill-rule="evenodd" clip-rule="evenodd" d="M84.1101 4.5141C84.4911 4.64111 84.8721 4.70461 85.3166 4.76811C91.032 5.65716 94.6517 6.86373 94.3977 12.325C94.3977 12.8331 93.8261 12.8331 93.6991 12.3885C92.302 7.49877 87.5393 8.26081 82.967 5.14914C83.348 5.02213 83.729 4.76811 84.1101 4.5141ZM82.2049 3.0535L82.3955 3.43453C82.205 3.56154 82.0145 3.62504 81.8239 3.68854C81.6334 3.75204 81.4429 3.81556 81.2524 3.81556L81.1889 3.75205C80.9984 3.81555 80.7444 3.81556 80.5539 3.81556C79.4743 3.75205 78.7123 2.79949 78.7758 1.71992L78.9028 1.27541C79.1568 0.449862 79.9823 -0.0581673 80.8714 0.00533635C81.951 0.06884 82.713 1.02139 82.6495 2.10095C82.5225 2.41847 82.3955 2.79949 82.2049 3.0535ZM83.221 3.11701C82.6495 4.06957 81.5064 4.32358 79.8553 4.32358C74.0765 4.26007 70.3298 4.89512 69.6947 10.2294C69.6312 10.6105 69.8217 10.801 69.9488 10.801C70.0758 10.801 70.2663 10.7375 70.3298 10.5469C72.8064 5.33965 78.2677 8.00679 84.1101 4.06957C84.3006 4.13307 84.5546 4.19657 84.7451 4.26007C85.8247 4.32357 86.7137 3.56154 86.8407 2.48197C86.8407 2.29146 86.8407 2.16446 86.8407 1.97395C86.7137 1.14841 86.0152 0.449866 85.1261 0.386362C84.0466 0.322859 83.1575 1.08489 83.0305 2.16446C82.967 2.48197 83.0305 2.79949 83.221 3.11701Z" fill="#9E0E72"/>
<path fill-rule="evenodd" clip-rule="evenodd" d="M78.8394 14.6747C78.4584 16.8973 78.6489 19.1834 79.284 21.2155C77.6964 20.9615 76.1723 20.517 74.7752 19.8184C74.5847 17.7228 75.0927 15.6272 76.2358 13.7856C77.0613 14.1031 77.8869 14.4207 78.8394 14.6747ZM73.6321 11.8805C72.4256 13.0871 71.473 14.6112 71.0285 16.2623C71.473 17.0878 72.0445 17.7863 72.7431 18.4214C72.6161 16.3893 73.1876 14.2936 74.3942 12.579C74.1402 12.325 73.8861 12.1345 73.6321 11.8805ZM78.7124 8.95934C77.5058 9.27686 76.3628 9.78488 75.2832 10.4834L75.7278 10.9279C76.6168 10.1659 77.5693 9.46737 78.7124 8.95934ZM87.2219 13.5951C86.3964 11.69 85.1898 9.97539 83.6022 8.89583C82.4591 10.2294 81.6336 11.8805 81.1256 13.5951C83.1577 14.0396 85.2533 13.9761 87.2219 13.5951ZM88.365 19.9455C88.4285 18.0404 88.111 16.0717 87.4759 14.2301C85.5073 14.9922 83.1577 15.2462 80.808 14.9922C80.427 17.0878 80.427 19.2469 80.935 21.3426C83.4752 21.4696 86.1423 21.025 88.365 19.9455ZM85.6978 9.46736C86.9044 10.4834 87.857 11.817 88.492 13.3411C89 13.2141 89.4445 13.0236 89.9526 12.8966C89.5715 13.2141 89.127 13.4681 88.6825 13.7221C89.381 15.5002 89.6986 17.4688 89.635 19.3104C90.4606 18.8024 91.2226 18.2309 91.8577 17.5323C91.2861 18.5484 90.4606 19.4374 89.5715 20.136C89.254 22.7396 88.1745 25.0893 86.1423 26.4228C87.4124 25.0258 88.1745 23.0571 88.4285 20.9615C86.3964 22.1681 83.9832 22.8031 81.4431 22.9301C81.9511 24.5177 82.7766 26.0418 83.7927 27.3119C82.2686 26.3593 80.935 24.8353 80.046 22.9301C78.4584 22.8666 76.8073 22.6126 75.3467 22.1681C75.9818 24.0097 77.1883 25.7243 79.0299 27.1214C76.2358 25.8513 74.3942 23.7557 73.4416 21.406C72.4891 20.898 71.6 20.3265 70.9015 19.6279C71.5365 24.3907 75.7913 28.0739 81.3796 28.0739C84.3642 28.0739 87.1584 26.9944 89.127 25.2163C91.0956 23.4382 92.3022 21.025 92.3022 18.3579C92.3022 15.6907 91.0956 13.2141 89.127 11.4995C88.111 10.6104 86.9679 9.91189 85.6978 9.46736ZM81.3161 6.86371C84.8723 6.86371 88.111 8.13379 90.4606 10.2294C92.8102 12.325 94.2708 15.1827 94.2708 18.3579C94.2708 21.5331 92.8102 24.3907 90.4606 26.4863C88.111 28.582 84.8723 29.852 81.3161 29.852C77.7599 29.852 74.5212 28.582 72.1715 26.4863C69.8219 24.3907 68.3613 21.5331 68.3613 18.3579C68.3613 15.1827 69.8219 12.325 72.1715 10.2294C74.5212 8.13379 77.7599 6.86371 81.3161 6.86371ZM81.4431 9.08634C80.427 10.2929 79.665 11.6265 79.2205 13.0236C78.5854 12.7696 77.9504 12.452 77.3789 12.1345C78.3949 10.928 79.792 9.84838 81.4431 9.08634Z" fill="#FBB800"/>
<path fill-rule="evenodd" clip-rule="evenodd" d="M35.2758 11.69H30.259V27.9469H35.2758L41.0547 18.9929V27.9469H46.0079V11.69H41.0547L35.2758 20.7075V11.69Z" fill="#9E0E72"/>
<path fill-rule="evenodd" clip-rule="evenodd" d="M48.8655 11.69H53.8823V17.9769H59.5976V11.69H64.6144V27.9469H59.5976V21.5966H53.8823V27.9469H48.8655V11.69Z" fill="#9E0E72"/>
<path fill-rule="evenodd" clip-rule="evenodd" d="M23.5912 17.9769C23.5912 17.0878 23.2737 16.4528 22.6387 16.0082C22.0037 15.5637 21.1781 15.3097 20.162 15.3097H17.9394V20.009C18.7015 20.3265 19.8445 20.644 20.6701 20.644C21.6226 20.644 22.3212 20.39 22.8292 19.9455C23.3372 19.4374 23.5912 18.8024 23.5912 17.9769ZM12.9226 20.009V15.3097H10.7C9.62045 15.3097 8.7949 15.5637 8.15986 16.0082C7.52483 16.4528 7.2708 17.1513 7.2708 17.9769C7.2708 18.8024 7.52482 19.4374 8.03285 19.882C8.54088 20.39 9.23941 20.5805 10.192 20.5805C11.0175 20.644 12.1606 20.3265 12.9226 20.009ZM3.90511 13.5316C5.23869 12.325 7.2073 11.69 9.68395 11.69H12.8591H17.8759H21.0511C23.5912 11.69 25.4964 12.325 26.8299 13.5316C28.0365 14.6747 28.6715 16.1353 28.6715 18.0404C28.6715 19.6915 28.1 21.1521 27.0204 22.2951C25.7504 23.6287 23.9088 24.3272 21.5591 24.3272C20.035 24.3272 19.273 24.0097 17.8759 23.6922V28.0104H12.8591V23.6922C11.462 24.0097 10.6365 24.3272 9.11242 24.3272C6.76278 24.3272 4.92117 23.6287 3.6511 22.2951C2.57154 21.1521 2 19.755 2 18.0404C2.0635 16.1353 2.69854 14.6747 3.90511 13.5316Z" fill="#9E0E72"/>
<path fill-rule="evenodd" clip-rule="evenodd" d="M131.548 20.009V15.3097H133.77C134.85 15.3097 135.675 15.5637 136.247 16.0082C136.882 16.4528 137.199 17.1513 137.199 17.9769C137.199 18.8024 136.945 19.4374 136.437 19.882C135.929 20.3265 135.231 20.5805 134.278 20.5805C133.389 20.644 132.31 20.3265 131.548 20.009ZM140.502 13.5316C139.168 12.325 137.199 11.69 134.723 11.69H126.531V27.9469H131.548V23.6287C132.945 23.9462 133.77 24.2637 135.294 24.2637C137.644 24.2637 139.486 23.5652 140.756 22.2316C141.835 21.0885 142.407 19.6915 142.407 17.9769C142.343 16.1353 141.708 14.6747 140.502 13.5316Z" fill="#9E0E72"/>
<path fill-rule="evenodd" clip-rule="evenodd" d="M97.5095 11.69H110.909V15.3097H106.718V27.9469H101.701V15.3097H97.5095V11.69Z" fill="#9E0E72"/>
<path fill-rule="evenodd" clip-rule="evenodd" d="M148.947 20.009V15.3097H151.17C152.25 15.3097 153.075 15.5637 153.71 16.0082C154.345 16.4528 154.599 17.1513 154.599 17.9769C154.599 18.8024 154.345 19.4374 153.837 19.882C153.329 20.3265 152.567 20.5805 151.615 20.5805C150.853 20.644 149.71 20.3265 148.947 20.009ZM157.965 13.5316C156.631 12.325 154.663 11.69 152.186 11.69H143.994V27.9469H149.011V23.6287C150.408 23.9462 151.234 24.2637 152.758 24.2637C155.107 24.2637 156.949 23.5652 158.219 22.2316C159.299 21.0885 159.87 19.6915 159.87 17.9769C159.807 16.1353 159.172 14.6747 157.965 13.5316Z" fill="#9E0E72"/>
<path fill-rule="evenodd" clip-rule="evenodd" d="M165.458 21.7871L165.585 21.4696C166.157 19.8185 166.792 18.3579 167.49 16.9608C167.935 17.7863 168.316 18.6119 168.634 19.4375C169.015 20.3265 169.269 21.0885 169.396 21.7236H165.458V21.7871ZM165.014 11.69C163.744 13.5316 162.537 16.0718 161.331 19.3739C160.251 22.2951 159.426 25.1528 158.854 27.9469H163.871C164.061 26.9944 164.252 26.1053 164.506 25.2163H170.412L170.983 27.9469H176C175.682 26.2958 175.301 24.7083 174.857 23.1207C174.285 21.0885 173.65 19.1834 172.888 17.4688C171.999 15.3732 170.92 13.4046 169.84 11.7535H165.014V11.69Z" fill="#9E0E72"/>
<path fill-rule="evenodd" clip-rule="evenodd" d="M124.054 15.3097V11.69H112.624V27.9469H124.562V24.3272H117.64V21.5966H124.181V17.9769H117.64V15.3097H124.054Z" fill="#9E0E72"/>
</svg>
